<svg width="79" height="55" viewBox="0 0 79 55" fill="none" xmlns="http://www.w3.org/2000/svg">
<path d="M39.5003 8.02083C46.0125 7.99918 52.3986 9.81569 57.9245 13.2615C63.4504 16.7074 67.8917 21.6427 70.7378 27.5C64.8941 39.4354 52.9587 46.9792 39.5003 46.9792C26.042 46.9792 14.1066 39.4354 8.26283 27.5C11.109 21.6427 15.5503 16.7074 21.0761 13.2615C26.602 9.81569 32.9881 7.99918 39.5003 8.02083V8.02083ZM39.5003 0.9375C21.792 0.9375 6.66908 11.9521 0.541992 27.5C6.66908 43.0479 21.792 54.0625 39.5003 54.0625C57.2087 54.0625 72.3316 43.0479 78.4587 27.5C72.3316 11.9521 57.2087 0.9375 39.5003 0.9375ZM39.5003 18.6458C41.8486 18.6458 44.1007 19.5787 45.7612 21.2392C47.4216 22.8996 48.3545 25.1517 48.3545 27.5C48.3545 29.8483 47.4216 32.1004 45.7612 33.7608C44.1007 35.4213 41.8486 36.3542 39.5003 36.3542C37.1521 36.3542 34.9 35.4213 33.2395 33.7608C31.579 32.1004 30.6462 29.8483 30.6462 27.5C30.6462 25.1517 31.579 22.8996 33.2395 21.2392C34.9 19.5787 37.1521 18.6458 39.5003 18.6458V18.6458ZM39.5003 11.5625C30.717 11.5625 23.5628 18.7167 23.5628 27.5C23.5628 36.2833 30.717 43.4375 39.5003 43.4375C48.2837 43.4375 55.4378 36.2833 55.4378 27.5C55.4378 18.7167 48.2837 11.5625 39.5003 11.5625Z" fill="#EDF7FF"/>
</svg>
